<?xml version="1.0" encoding="UTF-8"?>
<!DOCTYPE svg PUBLIC "-//W3C//DTD SVG 1.1//EN" "http://www.w3.org/Graphics/SVG/1.1/DTD/svg11.dtd">
<svg version="1.1" xmlns="http://www.w3.org/2000/svg" xmlns:xlink="http://www.w3.org/1999/xlink" x="0" y="0" viewBox="0, 0, 433.275, 83.888">
  <g id="Layer_1" transform="translate(0, -0.225)">
    <path d="M33.898,13.374 C28.798,13.374 27.32,15.642 27.32,20.629 L27.32,28.904 L40.927,28.904 L39.567,42.285 L27.32,42.285 L27.32,82.873 L10.994,82.873 L10.994,42.285 L-0,42.285 L-0,28.904 L10.994,28.904 L10.994,20.854 C10.994,7.367 16.438,0.225 31.63,0.225 C34.919,0.225 38.771,0.45 41.152,0.789 L41.152,13.374" fill="#000000"/>
    <path d="M58.386,57.815 C58.386,65.865 61.336,71.189 68.929,71.189 C75.62,71.189 79.021,66.316 79.021,58.611 L79.021,53.166 C79.021,45.455 75.62,40.581 68.929,40.581 C61.336,40.581 58.386,45.912 58.386,53.962 L58.386,57.815 z M42.06,54.188 C42.06,39.109 49.202,27.77 64.168,27.77 C72.331,27.77 77.317,31.967 79.698,37.179 L79.698,28.904 L95.347,28.904 L95.347,82.866 L79.698,82.866 L79.698,74.71 C77.43,79.923 72.331,84.001 64.168,84.001 C49.202,84.001 42.06,72.668 42.06,57.589" fill="#000000"/>
    <path d="M129.351,27.77 C135.696,27.77 141.711,29.129 144.993,31.397 L141.366,42.961 C138.872,41.715 134.794,40.468 130.484,40.468 C121.639,40.468 117.786,45.567 117.786,54.3 L117.786,57.47 C117.786,66.203 121.639,71.302 130.484,71.302 C134.794,71.302 138.872,70.055 141.366,68.809 L144.993,80.373 C141.711,82.641 135.696,84.001 129.351,84.001 C110.194,84.001 101.461,73.683 101.461,57.132 L101.461,54.638 C101.461,38.088 110.194,27.77 129.351,27.77" fill="#000000"/>
    <path d="M163.474,50.899 L183.201,50.899 L183.201,49.54 C183.201,43.644 180.82,38.996 173.678,38.996 C166.305,38.996 163.474,43.644 163.474,50.899 M147.148,57.928 L147.148,53.167 C147.148,37.863 155.874,27.77 173.678,27.77 C190.455,27.77 197.822,37.975 197.822,52.941 L197.822,61.555 L163.474,61.555 C163.812,68.929 167.101,72.211 176.172,72.211 C182.292,72.211 188.757,70.964 193.518,68.929 L196.462,80.148 C192.159,82.416 183.313,84.113 175.489,84.113 C154.86,84.113 147.148,73.802 147.148,57.928" fill="#000000"/>
    <path d="M242.037,53.843 C242.037,46.244 239.087,40.581 231.269,40.581 C224.578,40.581 220.951,45.342 220.951,53.047 L220.951,58.717 C220.951,66.428 224.578,71.189 231.269,71.189 C239.087,71.189 242.037,65.52 242.037,57.921 L242.037,53.843 z M258.363,57.583 C258.363,72.661 251.109,84.001 236.142,84.001 C227.98,84.001 222.31,79.916 220.042,74.704 L220.042,82.866 L204.625,82.866 L204.625,1.803 L220.951,0.331 L220.951,36.383 C223.331,31.623 228.543,27.77 236.142,27.77 C251.109,27.77 258.363,39.102 258.363,54.181" fill="#000000"/>
    <path d="M301.212,53.392 C301.212,46.25 298.261,40.581 290.669,40.581 C283.07,40.581 280.126,46.25 280.126,53.392 L280.126,58.378 C280.126,65.52 283.07,71.189 290.669,71.189 C298.261,71.189 301.212,65.52 301.212,58.378 L301.212,53.392 z M263.8,57.245 L263.8,54.526 C263.8,38.996 272.639,27.77 290.669,27.77 C308.692,27.77 317.537,38.996 317.537,54.526 L317.537,57.245 C317.537,72.781 308.692,84.001 290.669,84.001 C272.639,84.001 263.8,72.781 263.8,57.245" fill="#000000"/>
    <path d="M360.387,53.392 C360.387,46.25 357.436,40.581 349.844,40.581 C342.245,40.581 339.3,46.25 339.3,53.392 L339.3,58.378 C339.3,65.52 342.245,71.189 349.844,71.189 C357.436,71.189 360.387,65.52 360.387,58.378 L360.387,53.392 z M322.975,57.245 L322.975,54.526 C322.975,38.996 331.814,27.77 349.844,27.77 C367.867,27.77 376.712,38.996 376.712,54.526 L376.712,57.245 C376.712,72.781 367.867,84.001 349.844,84.001 C331.814,84.001 322.975,72.781 322.975,57.245" fill="#000000"/>
    <path d="M399.152,54.638 L415.252,28.904 L432.598,28.904 L415.703,55.547 L433.275,82.866 L415.935,82.866 L399.152,56.456 L399.152,82.866 L382.826,82.866 L382.826,1.81 L399.152,0.331" fill="#000000"/>
  </g>
</svg>
