<?xml version="1.0" encoding="UTF-8"?>
<!DOCTYPE svg PUBLIC "-//W3C//DTD SVG 1.1//EN" "http://www.w3.org/Graphics/SVG/1.1/DTD/svg11.dtd">
<svg version="1.1" xmlns="http://www.w3.org/2000/svg" xmlns:xlink="http://www.w3.org/1999/xlink" x="0" y="0" viewBox="0, 0, 255.171, 80.252">
  <g id="Layer_1" transform="translate(0, -0.748)">
    <path d="M31.87,29.337 L31.87,37.925 L52.396,37.925 C51.767,42.742 50.161,46.267 47.718,48.746 C44.716,51.748 40.038,55.029 31.87,55.029 C19.234,55.029 9.355,44.836 9.355,32.2 C9.355,19.563 19.234,9.371 31.87,9.371 C38.677,9.371 43.669,12.058 47.334,15.514 L53.373,9.475 C48.277,4.518 41.435,0.748 31.87,0.748 C14.556,0.748 -0,14.851 -0,32.165 C-0,49.479 14.556,63.581 31.87,63.581 C41.225,63.581 48.277,60.509 53.792,54.785 C59.447,49.13 61.227,41.136 61.227,34.713 C61.227,32.723 61.088,30.873 60.773,29.337 L31.87,29.337" fill="#000000"/>
    <path d="M86.884,54.924 C80.74,54.924 75.434,49.863 75.434,42.637 C75.434,35.341 80.74,30.35 86.884,30.35 C93.027,30.35 98.333,35.341 98.333,42.637 C98.333,49.863 93.027,54.924 86.884,54.924 z M86.884,22.356 C75.679,22.356 66.533,30.873 66.533,42.637 C66.533,54.296 75.679,62.918 86.884,62.918 C98.089,62.918 107.235,54.331 107.235,42.637 C107.235,30.873 98.089,22.356 86.884,22.356" fill="#000000"/>
    <path d="M176.421,54.924 C170.277,54.924 165.599,49.688 165.599,42.637 C165.599,35.481 170.277,30.35 176.421,30.35 C182.494,30.35 187.242,35.586 187.242,42.707 C187.277,49.793 182.494,54.924 176.421,54.924 z M186.648,26.894 L186.334,26.894 C184.345,24.52 180.505,22.356 175.653,22.356 C165.53,22.356 156.698,31.187 156.698,42.637 C156.698,54.017 165.53,62.918 175.653,62.918 C180.505,62.918 184.345,60.754 186.334,58.31 L186.648,58.31 L186.648,61.138 C186.648,68.887 182.494,73.041 175.827,73.041 C170.382,73.041 166.996,69.132 165.599,65.815 L157.85,69.027 C160.084,74.402 165.983,81 175.827,81 C186.264,81 195.096,74.856 195.096,59.881 L195.096,23.403 L186.648,23.403 L186.648,26.894" fill="#000000"/>
    <path d="M132.263,54.924 C126.119,54.924 120.814,49.863 120.814,42.637 C120.814,35.341 126.119,30.35 132.263,30.35 C138.407,30.35 143.713,35.341 143.713,42.637 C143.713,49.863 138.407,54.924 132.263,54.924 z M132.263,22.356 C121.058,22.356 111.912,30.873 111.912,42.637 C111.912,54.296 121.058,62.918 132.263,62.918 C143.468,62.918 152.614,54.331 152.614,42.637 C152.614,30.873 143.468,22.356 132.263,22.356" fill="#000000"/>
    <path d="M202.077,1.586 L210.839,1.586 L210.839,62.918 L202.077,62.918 z" fill="#000000"/>
    <path d="M237.264,29.966 C240.859,29.966 243.931,31.816 244.943,34.434 L226.617,42.009 C226.617,33.491 232.656,29.966 237.264,29.966 z M237.892,54.924 C233.354,54.924 230.143,52.865 228.048,48.781 L255.171,37.575 L254.264,35.272 C252.588,30.734 247.422,22.356 236.915,22.356 C226.477,22.356 217.786,30.559 217.786,42.637 C217.786,54.017 226.373,62.918 237.892,62.918 C247.177,62.918 252.553,57.228 254.787,53.947 L247.875,49.339 C245.572,52.69 242.43,54.924 237.892,54.924" fill="#000000"/>
  </g>
</svg>
