<?xml version="1.0" encoding="UTF-8"?>
<!DOCTYPE svg PUBLIC "-//W3C//DTD SVG 1.1//EN" "http://www.w3.org/Graphics/SVG/1.1/DTD/svg11.dtd">
<svg version="1.1" xmlns="http://www.w3.org/2000/svg" xmlns:xlink="http://www.w3.org/1999/xlink" x="0" y="0" viewBox="0, 0, 99.94, 18.574">
  <defs>
    <clipPath id="Clip_1">
      <path d="M33.371,13.09 C33.456,13.09 33.541,13.152 33.586,13.277 L34.26,15.124 L36.241,15.189 C36.508,15.198 36.585,15.432 36.373,15.595 L34.81,16.802 L35.36,18.689 C35.37,18.904 35.413,18.824 35.252,18.94 L35.019,18.94 L35.013,18.938 L33.371,17.838 L31.729,18.938 L31.723,18.94 L31.491,18.94 C31.33,18.823 31.373,18.904 31.383,18.689 L31.933,16.802 L30.369,15.595 C30.158,15.432 30.234,15.198 30.501,15.189 L32.482,15.124 L33.156,13.277 C33.202,13.152 33.287,13.09 33.371,13.09 z"/>
    </clipPath>
    <clipPath id="Clip_2">
      <path d="M26.236,13.09 C26.32,13.09 26.406,13.152 26.451,13.277 L27.125,15.124 L29.106,15.189 C29.374,15.198 29.45,15.432 29.239,15.595 L27.675,16.802 L28.225,18.689 C28.235,18.904 28.278,18.824 28.116,18.94 L27.882,18.94 L27.877,18.938 L26.237,17.838 L24.595,18.938 L24.589,18.94 L24.356,18.94 C24.194,18.824 24.237,18.904 24.248,18.689 L24.798,16.802 L23.233,15.595 C23.023,15.432 23.1,15.198 23.367,15.189 L25.346,15.124 L26.022,13.277 C26.067,13.152 26.151,13.09 26.236,13.09 z"/>
    </clipPath>
    <clipPath id="Clip_3">
      <path d="M18.581,13.09 C18.666,13.09 18.751,13.152 18.796,13.277 L19.471,15.124 L21.452,15.189 C21.719,15.198 21.795,15.432 21.584,15.595 L20.02,16.802 L20.57,18.689 C20.58,18.904 20.623,18.824 20.462,18.94 L20.228,18.94 L20.223,18.938 L18.582,17.838 L16.94,18.938 L16.934,18.94 L16.701,18.94 C16.539,18.824 16.582,18.904 16.593,18.689 L17.143,16.802 L15.578,15.595 C15.368,15.432 15.445,15.198 15.712,15.189 L17.693,15.124 L18.367,13.277 C18.412,13.152 18.496,13.09 18.581,13.09 z"/>
    </clipPath>
    <clipPath id="Clip_4">
      <path d="M11.08,13.09 C11.165,13.09 11.249,13.152 11.296,13.277 L11.969,15.124 L13.951,15.189 C14.218,15.198 14.293,15.432 14.082,15.595 L12.519,16.802 L13.069,18.689 C13.079,18.904 13.122,18.824 12.961,18.94 L12.727,18.94 L12.722,18.938 L11.08,17.838 L9.439,18.938 L9.433,18.94 L9.2,18.94 C9.038,18.824 9.081,18.904 9.092,18.689 L9.642,16.802 L8.078,15.595 C7.867,15.432 7.943,15.198 8.21,15.189 L10.192,15.124 L10.865,13.277 C10.911,13.152 10.996,13.09 11.08,13.09 z"/>
    </clipPath>
    <clipPath id="Clip_5">
      <path d="M3.124,13.09 C3.208,13.09 3.292,13.152 3.338,13.277 L4.012,15.124 L5.993,15.189 C6.26,15.198 6.337,15.432 6.126,15.595 L4.563,16.802 L5.111,18.689 C5.122,18.904 5.165,18.824 5.004,18.94 L4.767,18.94 L4.764,18.939 L3.124,17.838 L1.482,18.939 L1.479,18.94 L1.243,18.94 C1.082,18.824 1.125,18.904 1.135,18.689 L1.685,16.802 L0.121,15.595 L0.06,15.519 L0.06,15.327 C0.108,15.18 0.059,15.242 0.253,15.189 L2.235,15.124 L2.909,13.277 C2.954,13.152 3.039,13.09 3.124,13.09 z"/>
    </clipPath>
  </defs>
  <g id="Layer_1" transform="translate(-0.06, -0.366)">
    <g clip-path="url(#Clip_1)">
      <path d="M33.371,13.09 C33.456,13.09 33.541,13.152 33.586,13.277 L34.26,15.124 L36.241,15.189 C36.508,15.198 36.585,15.432 36.373,15.595 L34.81,16.802 L35.36,18.689 C35.37,18.904 35.413,18.824 35.252,18.94 L35.018,18.94 L35.013,18.938 L33.371,17.838 L31.729,18.938 L31.724,18.94 L31.491,18.94 C31.33,18.824 31.373,18.904 31.383,18.689 L31.933,16.802 L30.369,15.595 C30.158,15.432 30.234,15.198 30.501,15.189 L32.482,15.124 L33.156,13.277 C33.202,13.152 33.287,13.09 33.371,13.09 z" fill="#000000"/>
    </g>
    <g clip-path="url(#Clip_2)">
      <path d="M26.236,13.09 C26.32,13.09 26.406,13.152 26.451,13.277 L27.125,15.124 L29.106,15.189 C29.374,15.198 29.45,15.432 29.239,15.595 L27.675,16.802 L28.225,18.689 C28.235,18.904 28.278,18.824 28.116,18.94 L27.882,18.94 L27.877,18.938 L26.237,17.838 L24.595,18.938 L24.589,18.94 L24.356,18.94 C24.194,18.824 24.237,18.904 24.248,18.689 L24.798,16.802 L23.233,15.595 C23.023,15.432 23.1,15.198 23.367,15.189 L25.346,15.124 L26.022,13.277 C26.067,13.152 26.151,13.09 26.236,13.09 z" fill="#000000"/>
    </g>
    <g clip-path="url(#Clip_3)">
      <path d="M18.581,13.09 C18.666,13.09 18.751,13.152 18.796,13.277 L19.471,15.124 L21.452,15.189 C21.719,15.198 21.795,15.432 21.584,15.595 L20.02,16.802 L20.57,18.689 C20.58,18.904 20.623,18.824 20.462,18.94 L20.228,18.94 L20.223,18.938 L18.582,17.838 L16.94,18.938 L16.934,18.94 L16.701,18.94 C16.539,18.824 16.582,18.904 16.593,18.689 L17.143,16.802 L15.578,15.595 C15.368,15.432 15.445,15.198 15.712,15.189 L17.693,15.124 L18.367,13.277 C18.412,13.152 18.496,13.09 18.581,13.09 z" fill="#000000"/>
    </g>
    <g clip-path="url(#Clip_4)">
      <path d="M11.08,13.09 C11.165,13.09 11.249,13.152 11.296,13.277 L11.969,15.124 L13.951,15.189 C14.218,15.198 14.293,15.432 14.082,15.595 L12.519,16.802 L13.069,18.689 C13.079,18.904 13.122,18.824 12.961,18.94 L12.727,18.94 L12.722,18.938 L11.08,17.838 L9.439,18.938 L9.433,18.94 L9.2,18.94 C9.038,18.824 9.081,18.904 9.092,18.689 L9.642,16.802 L8.078,15.595 C7.867,15.432 7.943,15.198 8.21,15.189 L10.192,15.124 L10.865,13.277 C10.911,13.152 10.996,13.09 11.08,13.09 z" fill="#000000"/>
    </g>
    <g clip-path="url(#Clip_5)">
      <path d="M3.124,13.09 C3.208,13.09 3.292,13.152 3.338,13.277 L4.012,15.124 L5.993,15.189 C6.26,15.198 6.337,15.432 6.126,15.595 L4.563,16.802 L5.111,18.689 C5.122,18.904 5.165,18.824 5.004,18.94 L4.767,18.94 L4.764,18.939 L3.124,17.838 L1.482,18.939 L1.479,18.94 L1.243,18.94 C1.082,18.824 1.125,18.904 1.135,18.689 L1.685,16.802 L0.121,15.595 L0.06,15.519 L0.06,15.327 C0.108,15.18 0.059,15.242 0.253,15.189 L2.235,15.124 L2.909,13.277 C2.954,13.152 3.039,13.09 3.124,13.09 z" fill="#000000"/>
    </g>
    <path d="M43.299,18.524 C43.39,18.66 43.544,18.743 43.708,18.743 L99.502,18.745 C99.634,18.745 99.759,18.693 99.851,18.601 C99.942,18.509 99.996,18.384 99.996,18.253 L99.996,14.529 C99.996,14.258 99.774,14.037 99.502,14.037 L45.169,14.037 C44.971,14.037 44.792,14.157 44.715,14.34 L43.254,18.062 C43.19,18.214 43.208,18.387 43.299,18.524" fill="#000000"/>
    <path d="M40.302,10.862 L37.848,4.109 C37.838,4.089 37.833,4.066 37.833,4.043 C37.833,3.957 37.902,3.889 37.986,3.889 L39.033,3.889 L39.056,3.888 C39.188,3.888 39.302,3.974 39.342,4.093 L41.284,10.071 L41.312,10.071 L43.29,4.11 L43.299,4.083 C43.344,3.972 43.447,3.895 43.567,3.889 L44.536,3.889 C44.621,3.889 44.69,3.957 44.69,4.043 C44.69,4.058 44.688,4.073 44.684,4.087 L42.144,11.128 L40.497,15.903 C40.492,15.925 40.481,15.945 40.466,15.962 C40.413,16.028 40.316,16.039 40.25,15.985 L39.437,15.327 C39.315,15.23 39.282,15.091 39.324,14.974 L40.584,11.699 C40.603,11.639 40.39,11.11 40.302,10.862" fill="#000000"/>
    <path d="M35.864,8.466 L35.864,7.807 C35.571,7.807 35.278,7.777 34.984,7.777 C34.238,7.777 32.392,7.895 32.392,9.213 C32.392,10.004 33.153,10.429 33.783,10.429 C35.146,10.429 35.864,9.58 35.864,8.466 M37.268,11.064 C37.268,11.231 37.133,11.367 36.966,11.367 L36.334,11.367 C36.146,11.367 36.011,11.232 36.011,11.064 L36.01,10.399 L35.98,10.399 C35.658,10.854 34.926,11.542 33.666,11.542 C32.054,11.542 30.926,10.84 30.926,9.213 C30.926,7.338 32.978,6.752 34.398,6.752 C34.94,6.752 35.321,6.752 35.864,6.781 C35.864,5.492 35.394,4.833 34.018,4.833 C33.42,4.833 32.788,5.006 32.274,5.3 C32.229,5.327 32.176,5.343 32.118,5.343 C31.959,5.343 31.828,5.219 31.816,5.062 L31.782,4.518 C31.782,4.451 31.814,4.401 31.86,4.374 C32.53,3.99 33.322,3.719 34.238,3.719 C36.376,3.719 37.241,4.774 37.241,6.81 L37.241,9.901 C37.241,10.446 37.253,10.805 37.269,11.049 L37.268,11.064" fill="#000000"/>
    <path d="M24.292,7.588 C24.263,8.76 24.878,10.415 26.357,10.415 C27.911,10.415 28.554,8.877 28.554,7.632 C28.554,6.24 27.837,4.819 26.343,4.819 C24.849,4.819 24.263,6.226 24.292,7.588 M28.613,11.05 L28.613,10.298 L28.585,10.298 C28.218,10.854 27.369,11.529 26.035,11.529 C23.779,11.529 22.827,9.521 22.827,7.486 C22.827,5.478 23.882,3.706 26.051,3.706 C27.355,3.706 28.101,4.219 28.526,4.907 L28.554,4.907 L28.554,0.668 C28.554,0.502 28.688,0.368 28.853,0.366 L29.629,0.366 C29.796,0.366 29.93,0.5 29.932,0.666 L29.932,11.05 C29.93,11.218 29.799,11.349 29.638,11.354 L28.932,11.354 C28.749,11.354 28.613,11.218 28.613,11.05" fill="#000000"/>
    <path d="M10.417,7.625 C10.417,6.204 11.281,4.828 12.76,4.828 C14.225,4.828 15.089,6.204 15.089,7.625 C15.089,8.958 14.372,10.423 12.76,10.423 C11.135,10.423 10.417,8.958 10.417,7.625 M8.952,7.625 C8.952,9.764 10.504,11.536 12.76,11.536 C15.002,11.536 16.554,9.764 16.554,7.625 C16.554,5.354 15.031,3.714 12.76,3.714 C10.475,3.714 8.952,5.354 8.952,7.625 C8.952,9.764 10.504,11.536 12.76,11.536 C15.002,11.536 16.554,9.764 16.554,7.625 C16.554,5.354 15.031,3.714 12.76,3.714 C10.475,3.714 8.952,5.354 8.952,7.625 M10.417,7.625 C10.417,6.204 11.281,4.828 12.76,4.828 C14.225,4.828 15.089,6.204 15.089,7.625 C15.089,8.958 14.372,10.423 12.76,10.423 C11.135,10.423 10.417,8.958 10.417,7.625" fill="#000000"/>
    <path d="M7.956,11.059 C7.956,11.225 7.822,11.359 7.655,11.361 L6.786,11.361 C6.623,11.355 6.491,11.222 6.491,11.058 L6.491,6.703 L1.599,6.703 L1.6,11.059 C1.592,11.228 1.466,11.354 1.309,11.361 L0.451,11.361 C0.268,11.361 0.133,11.226 0.133,11.059 L0.134,11.029 L0.134,1.448 C0.134,1.27 0.269,1.135 0.437,1.135 L1.296,1.136 C1.466,1.139 1.597,1.271 1.599,1.437 L1.599,5.414 L6.491,5.414 L6.491,1.422 C6.5,1.262 6.632,1.135 6.795,1.135 L7.636,1.136 C7.821,1.135 7.956,1.271 7.956,1.438 L7.956,11.059" fill="#000000"/>
    <path d="M17.869,11.354 L17.846,11.355 C17.68,11.355 17.544,11.219 17.544,11.052 L17.544,0.666 C17.546,0.5 17.681,0.366 17.847,0.366 L18.619,0.366 C18.791,0.372 18.922,0.504 18.922,0.669 L18.922,11.354 L17.869,11.354" fill="#000000"/>
    <path d="M20.788,11.348 L20.768,11.349 C20.602,11.349 20.466,11.214 20.464,11.049 L20.464,4.182 C20.464,4.012 20.6,3.876 20.768,3.876 L21.537,3.876 C21.707,3.877 21.842,4.013 21.842,4.18 L21.842,11.348 L20.788,11.348" fill="#000000"/>
    <path d="M21.93,0.654 L21.93,1.908 C21.928,2.074 21.793,2.208 21.626,2.208 L20.377,2.208 L20.377,0.956 C20.379,0.787 20.514,0.654 20.679,0.654 L21.93,0.654" fill="#000000"/>
    <path d="M53.009,10.961 C53.009,11.097 52.931,11.206 52.818,11.252 C52.079,11.505 51.241,11.541 50.693,11.541 C47.456,11.541 45.302,9.46 45.302,6.208 C45.302,3.059 47.587,0.964 50.708,0.964 C51.418,0.964 52.117,1.059 52.783,1.312 L52.809,1.321 C52.916,1.369 52.991,1.475 52.991,1.599 L52.91,2.581 C52.901,2.669 52.837,2.729 52.757,2.729 C52.735,2.729 52.715,2.725 52.695,2.716 C52.098,2.407 51.451,2.253 50.781,2.253 C48.423,2.253 46.855,3.953 46.855,6.253 C46.855,8.656 48.584,10.251 50.708,10.251 C51.354,10.251 52.191,10.103 52.733,9.858 C52.752,9.85 52.772,9.845 52.796,9.845 C52.881,9.845 52.949,9.914 52.949,9.999 L53.009,10.961" fill="#000000"/>
    <path d="M60.619,11.053 C60.617,11.219 60.481,11.354 60.315,11.354 L59.544,11.353 C59.377,11.353 59.241,11.217 59.241,11.051 L59.242,11.023 L59.242,7.486 C59.242,5.743 58.86,4.893 57.66,4.82 C56.093,4.82 55.39,6.081 55.39,7.896 L55.389,11.051 C55.389,11.216 55.257,11.35 55.092,11.354 L54.314,11.354 C54.147,11.354 54.012,11.218 54.012,11.051 L54.012,0.688 C54.012,0.502 54.149,0.367 54.315,0.367 L55.089,0.367 C55.256,0.368 55.39,0.503 55.39,0.669 L55.39,4.952 L55.418,4.952 C55.917,4.161 56.781,3.707 57.82,3.707 C59.754,3.707 60.619,4.908 60.619,6.915 L60.619,11.053" fill="#000000"/>
    <path d="M74.625,11.023 C74.625,11.179 74.528,11.297 74.397,11.331 C73.891,11.508 73.342,11.541 72.914,11.541 C70.658,11.541 69.104,9.769 69.104,7.629 C69.104,5.358 70.629,3.718 72.914,3.718 C73.364,3.718 73.921,3.803 74.325,3.923 C74.46,3.954 74.56,4.073 74.56,4.217 L74.558,4.244 L74.488,4.938 C74.488,5.022 74.419,5.089 74.334,5.089 C74.317,5.089 74.3,5.087 74.284,5.082 C73.814,4.911 73.36,4.831 72.972,4.831 C71.435,4.831 70.57,6.208 70.57,7.629 C70.57,8.962 71.288,10.427 73.061,10.427 C73.458,10.427 73.938,10.322 74.334,10.121 C74.361,10.108 74.383,10.103 74.407,10.103 C74.486,10.103 74.553,10.164 74.56,10.24 L74.625,11.023" fill="#000000"/>
    <path d="M80.482,11.353 C80.37,11.354 80.289,11.313 80.234,11.249 L76.983,7.516 L76.981,11.051 C76.981,11.219 76.847,11.355 76.68,11.355 L76.654,11.353 L75.931,11.353 L75.908,11.355 C75.741,11.355 75.606,11.219 75.606,11.051 L75.606,0.669 C75.61,0.498 75.744,0.366 75.909,0.366 L76.67,0.366 C76.849,0.366 76.983,0.501 76.983,0.669 L76.983,6.914 L79.874,3.995 C79.93,3.927 80.016,3.883 80.11,3.883 L81.479,3.882 C81.563,3.882 81.632,3.951 81.632,4.036 C81.632,4.075 81.618,4.11 81.594,4.137 L78.391,7.193 L82.049,11.085 C82.08,11.113 82.101,11.153 82.101,11.199 C82.101,11.285 82.031,11.355 81.947,11.355 L80.482,11.353" fill="#000000"/>
    <path d="M10.417,7.625 C10.417,8.958 11.134,10.423 12.76,10.423 C14.372,10.423 15.089,8.958 15.089,7.625 C15.089,6.204 14.225,4.828 12.76,4.828 C11.281,4.828 10.417,6.204 10.417,7.625 M8.952,7.625 C8.952,5.354 10.475,3.714 12.76,3.714 C15.03,3.714 16.555,5.354 16.555,7.625 C16.555,9.764 15.002,11.536 12.76,11.536 C10.504,11.536 8.952,9.764 8.952,7.625" fill="#000000"/>
    <path d="M63.099,6.907 L66.966,6.907 C66.966,5.765 66.292,4.827 65.105,4.827 C63.757,4.827 63.201,5.94 63.099,6.907 M67.859,10.843 C67.855,10.976 67.777,11.081 67.669,11.124 C67.175,11.312 66.58,11.537 65.502,11.537 C62.85,11.537 61.633,9.925 61.633,7.493 C61.633,5.281 63.024,3.713 65.135,3.713 C67.57,3.713 68.395,5.451 68.429,7.775 C68.429,7.865 68.36,7.933 68.275,7.933 L63.099,7.933 C63.099,9.412 64.256,10.423 65.56,10.423 C66.312,10.423 67.165,10.102 67.628,9.832 C67.65,9.819 67.676,9.812 67.705,9.812 C67.791,9.812 67.859,9.879 67.859,9.964 L67.859,10.843" fill="#000000"/>
    <path d="M84.046,10.471 L84.046,11.246 C84.045,11.348 83.96,11.431 83.857,11.431 L83.844,11.43 L83.087,11.43 L83.087,10.657 C83.088,10.553 83.172,10.471 83.273,10.471 L84.046,10.471" fill="#000000"/>
    <path d="M87.915,11.223 C87.915,11.319 87.855,11.392 87.775,11.412 C87.464,11.521 87.127,11.541 86.864,11.541 C85.48,11.541 84.527,10.453 84.527,9.14 C84.527,7.747 85.463,6.74 86.864,6.74 C87.141,6.74 87.482,6.792 87.73,6.866 C87.813,6.884 87.875,6.958 87.875,7.046 L87.873,7.062 L87.831,7.489 C87.83,7.54 87.788,7.582 87.736,7.582 C87.726,7.582 87.716,7.58 87.706,7.577 C87.418,7.472 87.139,7.423 86.9,7.423 C85.957,7.423 85.427,8.268 85.427,9.14 C85.427,9.958 85.866,10.857 86.954,10.857 C87.199,10.857 87.493,10.793 87.736,10.669 C87.753,10.661 87.767,10.658 87.781,10.658 C87.83,10.658 87.87,10.695 87.875,10.743 L87.915,11.223" fill="#000000"/>
    <path d="M89.125,9.138 C89.125,9.956 89.564,10.854 90.563,10.854 C91.552,10.854 91.992,9.956 91.992,9.138 C91.992,8.266 91.462,7.42 90.563,7.42 C89.655,7.42 89.125,8.266 89.125,9.138 M88.226,9.138 C88.226,7.744 89.16,6.737 90.563,6.737 C91.956,6.737 92.892,7.744 92.892,9.138 C92.892,10.45 91.938,11.537 90.563,11.537 C89.179,11.537 88.226,10.45 88.226,9.138" fill="#000000"/>
    <path d="M100,8.473 C100,7.467 99.574,6.706 98.396,6.706 C97.979,6.706 97.282,6.941 96.965,7.603 C96.72,6.978 96.186,6.706 95.65,6.706 C94.972,6.706 94.51,6.951 94.183,7.485 L94.165,7.485 L94.165,7.04 L94.163,7.04 L94.163,6.999 C94.163,6.896 94.081,6.813 93.978,6.812 L93.558,6.812 C93.455,6.812 93.37,6.896 93.37,7.01 L93.37,7.04 L93.367,7.04 L93.37,11.249 C93.37,11.353 93.453,11.437 93.557,11.437 L94.037,11.437 C94.139,11.435 94.221,11.351 94.221,11.25 L94.22,9.107 C94.22,8.246 94.563,7.395 95.434,7.395 C96.123,7.395 96.258,8.11 96.258,8.682 L96.258,11.249 C96.258,11.353 96.347,11.437 96.45,11.437 L96.931,11.437 C97.032,11.435 97.113,11.351 97.113,11.25 C97.113,11.25 97.113,9.09 97.112,9.018 C97.135,8.188 97.484,7.395 98.323,7.395 C99.012,7.395 99.148,8.11 99.148,8.682 L99.149,11.249 C99.149,11.353 99.233,11.437 99.336,11.437 L99.816,11.437 C99.918,11.435 100,11.351 100,11.25 L100,8.473" fill="#000000"/>
  </g>
</svg>
