<?xml version="1.0" encoding="UTF-8"?>
<!DOCTYPE svg PUBLIC "-//W3C//DTD SVG 1.1//EN" "http://www.w3.org/Graphics/SVG/1.1/DTD/svg11.dtd">
<svg version="1.1" xmlns="http://www.w3.org/2000/svg" xmlns:xlink="http://www.w3.org/1999/xlink" x="0" y="0" viewBox="0, 0, 234.969, 35.629">
  <defs>
    <clipPath id="Clip_1">
      <path d="M0.06,0.311 L235.029,0.311 L235.029,35.94 L0.06,35.94 z"/>
    </clipPath>
    <clipPath id="Clip_2">
      <path d="M0.06,0.311 L235.029,0.311 L235.029,35.94 L0.06,35.94 z"/>
    </clipPath>
  </defs>
  <g id="Layer_1" transform="translate(-0.06, -0.311)">
    <path d="M168.214,3.801 C168.214,5.057 169.238,6.082 170.497,6.082 C171.757,6.082 172.781,5.057 172.781,3.801 C172.781,2.541 171.757,1.516 170.497,1.516 C169.238,1.516 168.214,2.541 168.214,3.801" fill="#1A1919"/>
    <path d="M59.761,3.643 L56.302,4.832 C56.302,4.832 56.302,8.977 56.302,9.348 C55.937,9.348 52.464,9.348 52.464,9.348 L52.464,12.377 C52.464,12.377 55.828,12.377 56.191,12.377 C56.191,12.766 56.191,22.102 56.191,22.102 C56.191,26.731 57.769,28.615 61.634,28.615 C62.619,28.615 63.556,28.494 64.496,28.24 L64.646,28.199 L64.605,25.063 L64.337,25.156 C63.58,25.424 62.986,25.553 62.521,25.553 C60.707,25.553 60.031,24.527 60.031,21.77 C60.031,21.77 60.031,12.766 60.031,12.377 C60.4,12.377 64.46,12.377 64.46,12.377 L64.46,9.348 C64.46,9.348 60.4,9.348 60.031,9.348 C60.031,8.969 60.031,3.549 60.031,3.549 L59.761,3.643" fill="#1A1919"/>
    <g clip-path="url(#Clip_1)">
      <path d="M71.732,12.416 C71.732,11.35 71.732,9.348 71.732,9.348 L68.224,9.348 L68.224,28.285 L72.064,28.285 L72.064,18.779 C72.064,14.793 73.736,12.598 76.771,12.598 C77.209,12.598 77.636,12.662 78.154,12.811 L78.406,12.883 L78.529,9.143 L76.88,9.016 C74.654,9.016 72.857,10.217 71.732,12.416" fill="#1A1919"/>
      <path d="M98.068,25.479 C95.029,25.479 93.14,22.883 93.14,18.705 C93.14,14.682 95.132,12.08 98.214,12.08 C101.183,12.08 102.956,14.543 102.956,18.67 C102.956,22.869 101.083,25.479 98.068,25.479 z M99.136,8.904 C96.503,8.904 94.285,10.156 92.808,12.424 C92.808,11.514 92.808,9.348 92.808,9.348 L89.3,9.348 L89.3,36 L93.14,36 C93.14,36 93.14,26.691 93.14,25.666 C94.527,27.547 96.519,28.578 98.99,28.578 C103.845,28.578 106.98,24.602 106.98,18.447 C106.98,12.738 103.83,8.904 99.136,8.904" fill="#1A1919"/>
    </g>
    <path d="M121.576,20.293 C121.576,23.557 119.613,25.662 116.574,25.662 C114.716,25.662 113.419,24.441 113.419,22.691 C113.419,20.394 115.615,19.131 119.601,19.131 C119.601,19.131 121.242,19.131 121.576,19.131 C121.576,19.426 121.576,20.293 121.576,20.293 z M118.199,8.904 C115.855,8.904 113.798,9.346 111.91,10.254 L111.792,10.309 L111.835,13.588 L112.134,13.42 C113.939,12.408 115.644,11.897 117.203,11.897 C119.982,11.897 121.576,13.49 121.576,16.27 C121.576,16.27 121.576,16.354 121.576,16.434 C121.236,16.434 119.38,16.434 119.38,16.434 C113.06,16.434 109.58,18.721 109.58,22.877 C109.58,26.213 112.091,28.543 115.687,28.543 C118.333,28.543 120.378,27.506 121.833,25.547 C121.833,26.305 121.833,28.285 121.833,28.285 L125.306,28.285 L125.306,16.822 C125.306,11.568 122.915,8.904 118.199,8.904" fill="#1A1919"/>
    <path d="M136.619,25.402 C133.693,25.402 131.874,22.852 131.874,18.742 C131.874,14.629 133.708,11.971 136.544,11.971 C139.722,11.971 141.617,14.502 141.617,18.742 C141.617,22.789 139.656,25.402 136.619,25.402 z M141.617,0.311 C141.617,0.311 141.617,10.859 141.617,11.918 C140.203,9.949 138.232,8.904 135.693,8.904 C131.003,8.904 127.851,12.769 127.851,18.52 C127.851,24.443 131.044,28.578 135.621,28.578 C138.333,28.578 140.441,27.381 141.913,25.043 C141.913,25.992 141.913,28.285 141.913,28.285 L145.458,28.285 L145.458,0.311 L141.617,0.311" fill="#1A1919"/>
    <path d="M162.617,9.348 L157.169,20.277 L152.138,9.348 L147.81,9.348 L157.091,28.285 L166.626,9.348 L162.617,9.348" fill="#1A1919"/>
    <path d="M172.22,9.348 L168.583,9.348 L168.583,28.285 L172.425,28.285 L172.425,9.348 L172.22,9.348" fill="#1A1919"/>
    <path d="M176.925,14.203 C176.925,16.869 178.757,18.272 182.134,19.92 C184.265,20.969 185.38,21.584 185.38,23.061 C185.38,24.572 184.009,25.553 181.89,25.553 C180.386,25.553 178.72,25.125 177.072,24.316 L176.79,24.18 L176.662,27.516 L176.796,27.57 C178.371,28.189 180.035,28.506 181.744,28.506 C186.441,28.506 189.476,26.268 189.476,22.803 C189.476,19.912 187.552,18.449 184.228,16.897 C181.787,15.754 180.767,15.082 180.767,13.869 C180.767,12.715 181.902,11.971 183.662,11.971 C185.247,11.971 186.796,12.324 188.263,13.022 L188.537,13.152 L188.71,9.881 L188.556,9.834 C186.962,9.365 185.39,9.127 183.884,9.127 C179.722,9.127 176.925,11.166 176.925,14.203" fill="#1A1919"/>
    <path d="M201.49,25.59 C198.302,25.59 196.158,22.852 196.158,18.779 C196.158,14.686 198.302,11.934 201.49,11.934 C204.732,11.934 206.826,14.619 206.826,18.779 C206.826,22.916 204.732,25.59 201.49,25.59 z M201.453,8.904 C195.681,8.904 192.095,12.703 192.095,18.816 C192.095,24.93 195.681,28.729 201.453,28.729 C207.247,28.729 210.849,24.93 210.849,18.816 C210.849,12.703 207.247,8.904 201.453,8.904" fill="#1A1919"/>
    <path d="M217.935,12.416 C217.935,11.35 217.935,9.348 217.935,9.348 L214.427,9.348 L214.427,28.285 L218.267,28.285 L218.267,18.779 C218.267,14.793 219.941,12.598 222.974,12.598 C223.413,12.598 223.839,12.662 224.355,12.811 L224.607,12.883 L224.734,9.143 L223.083,9.016 C220.859,9.016 219.058,10.217 217.935,12.416" fill="#1A1919"/>
    <path d="M85.374,9.348 L81.736,9.348 L81.736,28.285 L85.578,28.285 L85.578,9.348 L85.374,9.348" fill="#1A1919"/>
    <path d="M81.365,3.801 C81.365,5.057 82.392,6.082 83.65,6.082 C84.91,6.082 85.933,5.057 85.933,3.801 C85.933,2.541 84.91,1.516 83.65,1.516 C82.392,1.516 81.365,2.541 81.365,3.801" fill="#1A1919"/>
    <path d="M13.688,16.795 C13.688,17.881 12.804,18.768 11.718,18.768 C10.626,18.768 9.745,17.881 9.745,16.795 C9.745,15.705 10.626,14.824 11.718,14.824 C12.804,14.824 13.688,15.705 13.688,16.795" fill="#0A0B09"/>
    <g clip-path="url(#Clip_2)">
      <path d="M37.455,16.795 C37.455,17.881 36.574,18.768 35.486,18.768 C34.394,18.768 33.515,17.881 33.515,16.795 C33.515,15.705 34.394,14.824 35.486,14.824 C36.574,14.824 37.455,15.705 37.455,16.795" fill="#0A0B09"/>
      <path d="M38.79,25.828 C36.417,26.703 33.845,26.602 31.544,25.541 C29.25,24.482 27.503,22.594 26.63,20.225 L26.63,20.223 C25.753,17.85 25.853,15.279 26.91,12.982 C27.968,10.686 29.857,8.938 32.23,8.062 C37.128,6.256 42.583,8.768 44.392,13.664 C46.201,18.559 43.687,24.016 38.79,25.828 z M11.871,26.365 C6.649,26.365 2.402,22.119 2.402,16.9 C2.402,11.68 6.649,7.434 11.871,7.434 C17.091,7.434 21.337,11.68 21.337,16.9 C21.337,22.119 17.091,26.365 11.871,26.365 z M35.132,5.098 C33.888,5.135 32.63,5.361 31.4,5.816 C28.427,6.914 26.06,9.102 24.734,11.981 C24.134,13.279 23.796,14.652 23.689,16.037 C23.25,9.977 18.248,5.174 12.108,5.051 C15.505,3.602 19.407,2.811 23.638,2.811 C27.894,2.811 31.738,3.58 35.132,5.098 z M45.031,9.877 C45.589,7.506 47.363,5.135 47.363,5.135 L39.449,5.131 C35.009,2.264 29.615,0.742 23.638,0.742 C17.44,0.742 11.843,2.301 7.428,5.186 L0,5.191 C0,5.191 1.752,7.533 2.322,9.889 C0.874,11.856 0.007,14.275 0.007,16.9 C0.007,23.441 5.329,28.762 11.871,28.762 C15.608,28.762 18.942,27.019 21.119,24.311 L23.642,28.09 L26.191,24.279 C27.335,25.736 28.81,26.916 30.542,27.715 C33.423,29.043 36.646,29.172 39.621,28.074 C45.757,25.803 48.906,18.965 46.638,12.834 C46.238,11.748 45.687,10.762 45.031,9.877" fill="#0A0B09"/>
    </g>
    <path d="M11.724,20.637 C9.603,20.637 7.877,18.912 7.877,16.795 C7.877,14.678 9.603,12.955 11.724,12.955 C13.837,12.955 15.557,14.678 15.557,16.795 C15.557,18.912 13.837,20.637 11.724,20.637 z M11.724,10.939 C8.49,10.939 5.86,13.566 5.86,16.795 C5.86,20.025 8.49,22.654 11.724,22.654 C14.949,22.654 17.574,20.025 17.574,16.795 C17.574,13.566 14.949,10.939 11.724,10.939" fill="#0A0B09"/>
    <path d="M35.486,20.637 C33.367,20.637 31.644,18.912 31.644,16.795 C31.644,14.678 33.367,12.955 35.486,12.955 C37.601,12.955 39.324,14.678 39.324,16.795 C39.324,18.912 37.601,20.637 35.486,20.637 z M35.486,10.939 C32.255,10.939 29.626,13.566 29.626,16.795 C29.626,20.025 32.255,22.654 35.486,22.654 C38.714,22.654 41.339,20.025 41.339,16.795 C41.339,13.566 38.714,10.939 35.486,10.939" fill="#0A0B09"/>
    <path d="M231.181,8.77 L231.55,8.77 C232.001,8.77 232.226,8.609 232.226,8.281 C232.226,7.916 231.992,7.766 231.494,7.766 L231.181,7.766 L231.181,8.77 z M231.662,7.115 C232.744,7.115 233.29,7.502 233.29,8.205 C233.29,8.695 232.997,9.072 232.49,9.221 L233.326,10.875 L232.189,10.875 L231.484,9.381 L231.181,9.381 L231.181,10.875 L230.148,10.875 L230.148,7.115 L231.662,7.115 z M229.65,7.051 C229.095,7.607 228.804,8.318 228.804,9.072 C228.804,9.805 229.076,10.481 229.603,11.018 C230.138,11.57 230.843,11.873 231.595,11.873 C232.33,11.873 233.035,11.592 233.581,11.064 C234.117,10.547 234.41,9.842 234.41,9.072 C234.41,8.318 234.134,7.633 233.619,7.106 C233.072,6.553 232.376,6.26 231.607,6.26 C230.843,6.26 230.175,6.533 229.65,7.051 z M234.07,6.674 C234.701,7.314 235.029,8.158 235.029,9.072 C235.029,10.022 234.673,10.875 234.013,11.506 C233.335,12.156 232.48,12.504 231.595,12.504 C230.675,12.504 229.818,12.137 229.16,11.459 C228.521,10.801 228.173,9.965 228.173,9.072 C228.173,8.158 228.54,7.275 229.216,6.607 C229.859,5.979 230.675,5.639 231.595,5.639 C232.546,5.639 233.412,5.996 234.07,6.674" fill="#0B0B09"/>
  </g>
</svg>
